<svg width="23" height="23" viewBox="0 0 23 23" fill="none" xmlns="http://www.w3.org/2000/svg">
<path d="M20.3045 9.59005C19.9932 9.40911 19.7136 9.17864 19.4765 8.90772C19.5005 8.53053 19.5903 8.16045 19.7419 7.81426C20.0208 7.02747 20.3361 6.13622 19.8301 5.44334C19.3241 4.75047 18.3686 4.77251 17.5301 4.79168C17.1596 4.8298 16.7853 4.80452 16.4232 4.71693C16.2303 4.40308 16.0926 4.05854 16.0159 3.69822C15.7783 2.88843 15.5071 1.97322 14.6743 1.69913C13.8712 1.44038 13.1275 2.00963 12.4701 2.50988C12.1864 2.76894 11.8577 2.97389 11.5003 3.11459C11.1391 2.97503 10.8067 2.77003 10.5199 2.50988C9.8644 2.01251 9.1236 1.43751 8.31669 1.70009C7.48581 1.97034 7.2146 2.88843 6.97502 3.69822C6.89848 4.05737 6.76209 4.40109 6.57156 4.71501C6.20885 4.80237 5.83405 4.82828 5.46277 4.79168C4.62135 4.76868 3.67356 4.74376 3.16277 5.44334C2.65198 6.14293 2.9711 7.02747 3.25094 7.8133C3.40469 8.15898 3.49587 8.52921 3.52023 8.90676C3.2836 9.17804 3.00424 9.40884 2.69319 9.59005C1.99169 10.0692 1.19531 10.6145 1.19531 11.5C1.19531 12.3855 1.99169 12.9289 2.69319 13.41C3.00417 13.5909 3.28352 13.8214 3.52023 14.0923C3.49843 14.4697 3.40985 14.8403 3.2586 15.1867C2.98069 15.9726 2.66635 16.8638 3.1714 17.5567C3.67644 18.2496 4.62902 18.2275 5.4714 18.2083C5.84224 18.1702 6.21687 18.1955 6.57923 18.2831C6.77126 18.5973 6.90865 18.9417 6.98556 19.3018C7.22323 20.1116 7.49444 21.0268 8.32723 21.3009C8.46074 21.3437 8.60006 21.3657 8.74027 21.3661C9.41418 21.2693 10.0405 20.9629 10.5304 20.4901C10.8141 20.2311 11.1428 20.0261 11.5003 19.8854C11.8615 20.025 12.1938 20.23 12.4806 20.4901C13.1371 20.9913 13.8808 21.5635 14.6848 21.2999C15.5157 21.0297 15.7869 20.1116 16.0265 19.3028C16.1033 18.9429 16.2407 18.5988 16.4328 18.285C16.7941 18.197 17.1678 18.1711 17.5378 18.2083C18.3792 18.2285 19.327 18.2563 19.8378 17.5567C20.3486 16.8571 20.0294 15.9726 19.7496 15.1858C19.5969 14.8404 19.5058 14.471 19.4803 14.0942C19.7171 13.8227 19.9968 13.5919 20.3083 13.4109C21.0098 12.9318 21.8062 12.3855 21.8062 11.5C21.8062 10.6145 21.0069 10.0702 20.3045 9.59005Z" fill="#6A6AE2"/>
<path d="M10.5413 14.1353C10.4469 14.1354 10.3534 14.1169 10.2662 14.0807C10.1791 14.0445 10.0999 13.9914 10.0334 13.9244L8.11673 12.0078C7.98977 11.8715 7.92065 11.6913 7.92394 11.5051C7.92723 11.3189 8.00266 11.1412 8.13435 11.0095C8.26603 10.8778 8.44369 10.8024 8.6299 10.7991C8.8161 10.7958 8.99632 10.865 9.13257 10.9919L10.6084 12.4678L13.9434 9.96651C14.0959 9.85213 14.2876 9.80302 14.4763 9.82998C14.665 9.85694 14.8353 9.95776 14.9497 10.1103C15.064 10.2628 15.1131 10.4544 15.0862 10.6432C15.0592 10.8319 14.9584 11.0021 14.8059 11.1165L10.9726 13.9915C10.8481 14.0848 10.6968 14.1352 10.5413 14.1353Z" fill="white"/>
</svg>
