<svg width="47" height="47" viewBox="0 0 47 47" fill="none" xmlns="http://www.w3.org/2000/svg">
<path d="M47 47H0V0H47V47ZM42.6483 17.7499V13.3983V4.35166H33.2079V2.17079H28.8563V4.35166H18.4567V2.17079H14.105V4.35166H4.36177V29.0986H3.78625V33.4503H4.36177V42.6483H14.105V43.8094H18.4567V42.6483H28.8563V43.8094H33.2079V42.6483H42.6483V17.7499Z" fill="black"/>
<path d="M42.6494 17.75H33.209V42.6484H42.6494V17.75Z" fill="#FCC267"/>
<path d="M42.6494 13.3984H33.209V17.7501H42.6494V13.3984Z" fill="black"/>
<path d="M42.6494 13.3982H33.209V4.35156H42.6494V13.3982ZM40.2565 8.98594C40.2565 7.70366 39.2165 6.6637 37.9241 6.6637C36.6419 6.6637 35.5918 7.69356 35.5918 8.98594C35.5918 10.2682 36.6318 11.3183 37.9241 11.3183C39.2165 11.3183 40.2565 10.2783 40.2565 8.98594Z" fill="#FA9902"/>
<path d="M37.9339 6.67383C39.2162 6.67383 40.2662 7.71379 40.2662 8.99607C40.2662 10.2783 39.2263 11.3284 37.9339 11.3284C36.6516 11.3284 35.6016 10.2884 35.6016 8.99607C35.6016 7.70369 36.6516 6.67383 37.9339 6.67383Z" fill="black"/>
<path d="M33.2091 13.3982V17.7498V42.6482H28.8574V4.35156H33.2091V13.3982Z" fill="black"/>
<path d="M33.2091 42.6484H28.8574V43.8095H33.2091V42.6484Z" fill="black"/>
<path d="M33.2091 2.16992H28.8574V4.3508H33.2091V2.16992Z" fill="black"/>
<path d="M28.8547 42.6482H18.4551V4.35156H28.8547V42.6482ZM25.9569 8.98594C25.9569 7.70366 24.917 6.6637 23.6246 6.6637C22.3423 6.6637 21.3023 7.69356 21.3023 8.98594C21.3023 10.2682 22.3423 11.3183 23.6246 11.3183C24.917 11.3183 25.9569 10.2783 25.9569 8.98594Z" fill="#B0CC1D"/>
<path d="M23.625 6.67383C24.9072 6.67383 25.9573 7.71379 25.9573 8.99607C25.9573 10.2783 24.9173 11.3284 23.625 11.3284C22.3427 11.3284 21.3027 10.2884 21.3027 8.99607C21.3128 7.70369 22.3427 6.67383 23.625 6.67383Z" fill="black"/>
<path d="M18.4571 42.6484H14.1055V43.8095H18.4571V42.6484Z" fill="black"/>
<path d="M18.4571 4.35156V42.6482H14.1055V33.4603H16.2864V29.1086H14.1055V4.35156H18.4571Z" fill="black"/>
<path d="M18.4571 2.16992H14.1055V4.3508H18.4571V2.16992Z" fill="black"/>
<path d="M16.2864 29.1094H14.1055V33.461H16.2864V29.1094Z" fill="black"/>
<path d="M14.1046 33.4512H4.36133V42.6492H14.1046V33.4512Z" fill="#53C9EE"/>
<path d="M14.1046 29.1094H4.36133V33.461H14.1046V29.1094Z" fill="black"/>
<path d="M14.1046 29.0985H4.36133V4.35156H14.1046V29.0985ZM11.5804 24.9387C11.5804 23.6564 10.5405 22.6063 9.24811 22.6063C7.96584 22.6063 6.91578 23.6463 6.91578 24.9387C6.91578 26.2209 7.96584 27.2609 9.24811 27.2609C10.5405 27.2508 11.5804 26.2209 11.5804 24.9387Z" fill="#98DFF5"/>
<path d="M9.25811 22.6055C10.5404 22.6055 11.5803 23.6454 11.5803 24.9378C11.5803 26.2201 10.5404 27.26 9.25811 27.26C7.97583 27.26 6.92578 26.2302 6.92578 24.9378C6.92578 23.6555 7.96574 22.6055 9.25811 22.6055Z" fill="black"/>
<path d="M4.36263 29.1094H3.78711V33.461H4.36263V29.1094Z" fill="black"/>
</svg>
